<?xml version="1.0" encoding="UTF-8" standalone="no"?>
<svg
   xmlns:dc="http://purl.org/dc/elements/1.1/"
   xmlns:cc="http://creativecommons.org/ns#"
   xmlns:rdf="http://www.w3.org/1999/02/22-rdf-syntax-ns#"
   xmlns:svg="http://www.w3.org/2000/svg"
   xmlns="http://www.w3.org/2000/svg"
   xmlns:sodipodi="http://sodipodi.sourceforge.net/DTD/sodipodi-0.dtd"
   xmlns:inkscape="http://www.inkscape.org/namespaces/inkscape"
   version="1.0"
   width="432.000000pt"
   height="432.000000pt"
   viewBox="0 0 432.000000 432.000000"
   preserveAspectRatio="xMidYMid meet"
   id="svg3848"
   sodipodi:docname="rabblerouser.square.432px.svg"
   inkscape:version="0.92.2 5c3e80d, 2017-08-06">
  <defs
     id="defs3852" />
  <sodipodi:namedview
     pagecolor="#ffffff"
     bordercolor="#666666"
     borderopacity="1"
     objecttolerance="10"
     gridtolerance="10"
     guidetolerance="10"
     inkscape:pageopacity="0"
     inkscape:pageshadow="2"
     inkscape:window-width="1440"
     inkscape:window-height="855"
     id="namedview3850"
     showgrid="false"
     inkscape:zoom="1"
     inkscape:cx="108"
     inkscape:cy="288"
     inkscape:window-x="0"
     inkscape:window-y="1"
     inkscape:window-maximized="1"
     inkscape:current-layer="svg3848" />
  <metadata
     id="metadata3836">
Created by potrace 1.15, written by Peter Selinger 2001-2017
<rdf:RDF>
  <cc:Work
     rdf:about="">
    <dc:format>image/svg+xml</dc:format>
    <dc:type
       rdf:resource="http://purl.org/dc/dcmitype/StillImage" />
  </cc:Work>
</rdf:RDF>
</metadata>
  <path
     style="fill:#000000;stroke:none;stroke-width:0.1"
     inkscape:connector-curvature="0"
     id="path3838"
     d="M 196,17.1 C 150.1,22.3 107.2,43.4 75,76.6 59.3,92.8 49.1,107 40,125 17.2,170.4 12,222.4 25.6,269.8 c 2.5,8.7 8.7,25.2 9.5,25.2 1,0 68.2,-38.9 69.6,-40.3 0.6,-0.7 5.9,-19.2 11.8,-41.2 5.9,-22 11,-41 11.4,-42.2 0.3,-1.3 1,-2.3 1.5,-2.4 0.5,0 8.5,13.1 17.9,29.3 9.3,16.1 26.9,46.6 39.2,67.8 48.7,84.2 55.6,96.3 55.3,96.6 -0.2,0.1 -19.9,-4.9 -43.8,-11.2 l -43.5,-11.5 -29.2,16.8 c -16.1,9.2 -29.3,17.1 -29.3,17.5 0,0.4 4.8,3.9 10.8,7.9 12.1,8 32.5,18.3 45.2,22.7 63.9,22.3 133.6,10.9 188.5,-30.6 15.5,-11.7 36.2,-34.5 46.9,-51.6 C 432.7,250.4 427,156.6 373.3,90 367,82.1 347.8,63.2 342.3,59.2 l -3.2,-2.3 4.5,8.8 c 8.8,17.3 12,32.3 11.1,51.6 -2,40.8 -27.6,76 -65.7,90.3 -10.1,3.9 -21.1,6.4 -27.4,6.4 -2.3,0 -5,0.6 -5.9,1.2 -0.9,0.7 -10,10.7 -20.2,22.3 -10.2,11.5 -18.9,21.1 -19.4,21.3 -0.4,0.1 -3.4,-12.6 -6.6,-28.3 l -5.9,-28.6 -7,-4.7 C 168,178.2 151,146.6 151,112.5 151,72.9 172.8,38.2 209,20.3 l 8.5,-4.3 -7,0.1 c -3.8,0.1 -10.4,0.5 -14.5,1 z" />
  <path
     style="fill:#c82506;stroke:#c82506;stroke-width:0.1;stroke-opacity:1;fill-opacity:1"
     inkscape:connector-curvature="0"
     id="path3840"
     d="m 275,57.1 c -0.8,0.5 -18.6,10.8 -39.5,22.9 -20.9,12 -38.8,22.5 -39.9,23.2 -1.8,1.3 -1.7,1.6 1.4,7.1 1.7,3.1 3.5,5.7 3.8,5.7 0.4,0 2.3,-1 4.2,-2.1 1.9,-1.2 19.9,-11.6 40,-23.1 20.1,-11.6 37.1,-21.6 37.8,-22.2 1,-1 0.7,-2.3 -2,-6.9 -3.4,-6.1 -3.5,-6.1 -5.8,-4.6 z" />
  <path
     style="fill:#c82506;stroke:#c82506;stroke-width:0.1;stroke-opacity:1;fill-opacity:1"
     inkscape:connector-curvature="0"
     id="path3842"
     d="m 286,90.3 c -4.1,2.4 -22.6,13.1 -41,23.7 -18.4,10.6 -33.7,19.4 -33.9,19.6 -0.3,0.2 0.6,2.3 1.9,4.7 4.7,8.5 2.3,8.9 25.6,-4.4 C 281.9,109 301,97.8 301,97.1 301,95.9 295,86 294.2,86 c -0.4,0 -4.1,2 -8.2,4.3 z" />
  <path
     style="fill:#c82506;stroke:#c82506;stroke-width:0.1;stroke-opacity:1;fill-opacity:1"
     inkscape:connector-curvature="0"
     id="path3844"
     d="m 298.5,120.2 c -6.6,3.9 -25.3,14.7 -41.5,24 -16.2,9.4 -29.7,17.2 -29.9,17.4 -0.2,0.1 1.1,2.8 2.9,5.9 2.4,4.2 3.7,5.5 5,5.2 1,-0.2 13.6,-7.3 28.1,-15.8 14.5,-8.4 32.6,-18.8 40.2,-23.2 7.5,-4.3 13.7,-8.3 13.7,-8.7 0,-0.7 -5.6,-10.9 -6.4,-11.6 0,-0.1 -5.5,3 -12.1,6.8 z" />
  <path
     d="m 273.1,553.76885 c -39.0475,-2.90637 -76.56788,-14.19171 -111.34507,-33.49025 -11.58708,-6.42989 -29.8361,-18.18705 -31.68252,-20.41185 -1.24717,-1.50275 1.28365,-3.09087 45.75901,-28.71437 l 30.23143,-17.41716 20.26857,5.35666 C 274.74316,471.88633 319.76987,483.4 321.3936,483.4 c 1.64656,0 1.65559,-0.19758 0.14265,-3.12327 C 319.36952,476.08673 211.04024,288.34268 195.82025,262.4 175.52428,227.80521 173.03755,224.0204 171.61201,225.55503 170.92486,226.29476 165.76521,244 160.14612,264.9 147.05946,313.57533 140.18917,337.57907 138.89715,339.14062 137.33636,341.02703 48.71723,392.4 47.023947,392.4 46.192448,392.4 42.99194,384.21933 37.438863,367.9 32.50072,353.38783 27.847017,331.65036 26.037172,314.64263 24.496677,300.16609 25.351509,263.60809 27.562732,249.4 34.768536,203.09951 53.988718,158.37707 81.562203,123.75146 106.79185,92.069132 141.23816,64.55508 176.6,47.839851 210.55543,31.78942 240.98904,24.150411 279.6,21.986268 l 9,-0.50445 -11.03582,5.751184 c -15.75755,8.21185 -25.48598,15.233431 -36.97785,26.689087 -20.25745,20.193628 -32.65281,44.083362 -37.52751,72.327281 -7.5674,43.8454 6.16293,87.52356 37.49008,119.26125 4.67458,4.73584 12.61482,11.48584 17.64498,15 5.03016,3.51416 9.9967,7.06438 11.03677,7.88938 1.45608,1.155 3.15424,7.595 7.3833,28 7.39638,35.68721 10.52136,49 11.50202,49 0.45124,0 11.82436,-12.2625 25.2736,-27.25 13.44924,-14.9875 25.54661,-28.25692 26.88305,-29.4876 1.91429,-1.76281 4.32869,-2.4342 11.37863,-3.16413 52.28422,-5.4134 98.63459,-42.71796 114.86912,-92.45109 4.57218,-14.00646 5.73495,-21.44708 6.27398,-40.14718 0.75642,-26.24191 -1.95496,-39.45995 -12.80085,-62.404338 -2.70499,-5.722385 -4.70394,-10.618556 -4.44212,-10.88038 1.64358,-1.643576 36.97559,34.125608 47.20278,47.786828 31.91143,42.62647 50.41977,93.52874 53.22224,146.37358 2.86573,54.03763 -9.51205,104.69931 -36.91589,151.09498 -10.54047,17.8454 -34.10462,46.28918 -50.69175,61.18894 -39.13033,35.14968 -91.00417,58.90037 -143.76876,65.82521 -12.04853,1.58125 -41.22679,2.64869 -51.5,1.88403 z"
     id="path3870"
     inkscape:connector-curvature="0"
     transform="scale(0.75)"
     style="fill:#c82506;fill-opacity:1;stroke:#c82506;stroke-opacity:1" />
</svg>
